<?xml version="1.0" encoding="utf-8"?>
<!-- Generator: Adobe Illustrator 22.0.1, SVG Export Plug-In . SVG Version: 6.00 Build 0)  -->
<svg version="1.1" id="Слой_1" xmlns="http://www.w3.org/2000/svg" xmlns:xlink="http://www.w3.org/1999/xlink" x="0px" y="0px"
	 viewBox="202.4 408.8 22.1 21.8" enable-background="new 202.4 408.8 22.1 21.8" xml:space="preserve">
<path fill="#888E98" d="M223.3,421.3h-0.7l-3.6-3.1c-0.4-0.3-0.8-0.5-1.3-0.4l-1.5-2.2c-0.2-0.3-0.5-0.5-0.8-0.5
	c-0.3-0.1-0.6,0-0.9,0.2l-1.3,0.9c-0.1,0.1-0.3,0.1-0.5,0.1l-1-0.3c-0.4-0.1-0.8-0.1-1.1,0.2c-0.1,0.1-0.2,0.3-0.1,0.5
	c0.1,0.1,0.3,0.2,0.5,0.1c0.1-0.1,0.3-0.1,0.5-0.1l1,0.3c0.4,0.1,0.8,0.1,1.1-0.1l1.3-0.9c0.1-0.1,0.3-0.1,0.4-0.1
	c0.1,0,0.3,0.1,0.4,0.2l0.2,0.4l-1.3,0.4c-0.2,0.1-0.3,0.2-0.2,0.4s0.2,0.3,0.4,0.2l0.9-0.3l-0.2,0.4c-0.1,0.2,0,0.4,0.1,0.4
	c0.1,0,0.1,0,0.2,0c0.1,0,0.2-0.1,0.3-0.2l0.4-0.7l0.6,0.9c-0.1,0-0.1,0.1-0.2,0.1l-2.6,1.6l-0.8-1.1c-0.4-0.6-1.3-0.8-2-0.5
	l-0.8,0.4c-0.2,0.1-0.4,0.1-0.7,0.1l-0.3-0.1l0.6-1c0.1-0.2,0-0.4-0.1-0.4c-0.2-0.1-0.4,0-0.4,0.1l-0.7,1.1l-0.7-0.2
	c-0.7-0.2-1.5,0.1-1.8,0.8l-1.3,2.5h-1.5c-0.7,0-1.2,0.5-1.2,1.2v1.3c0,0.7,0.5,1.2,1.2,1.2h0.8v5.3c0,0.2,0.1,0.3,0.3,0.3h17.3
	c0.2,0,0.3-0.1,0.3-0.3v-5.3h0.8c0.7,0,1.2-0.5,1.2-1.2v-1.3C224.5,421.9,224,421.3,223.3,421.3z M215.6,419.5v0.7
	c0,0.2,0.1,0.3,0.3,0.3s0.3-0.1,0.3-0.3v-0.8l1.3,0.5c0.2,0.1,0.4,0,0.4-0.2c0.1-0.2,0-0.4-0.2-0.4l-1.2-0.5l0.4-0.3
	c0.4-0.3,1-0.2,1.3,0.1l3.1,2.6h-6.2l-0.8-1.1L215.6,419.5z M207.1,419.1c0.2-0.4,0.6-0.6,1-0.4l1.7,0.5c0.4,0.1,0.8,0.1,1.2-0.1
	l0.8-0.4c0.4-0.2,0.9-0.1,1.1,0.3l1.7,2.4h-1.4l-0.5-1.2c-0.1-0.2-0.3-0.2-0.4-0.2c-0.2,0.1-0.2,0.3-0.2,0.4l0.4,0.9h-3.1l0-0.6
	l0.9-0.3c0.2-0.1,0.3-0.3,0.2-0.4c-0.1-0.2-0.3-0.3-0.4-0.2l-0.9,0.3l-1.1-0.6c-0.2-0.1-0.4,0-0.4,0.1c-0.1,0.2,0,0.4,0.1,0.4
	l1.1,0.6l0,0.6H206L207.1,419.1z M205.2,430v-1.2h13.7c0.2,0,0.3-0.1,0.3-0.3c0-0.2-0.1-0.3-0.3-0.3h-13.7V427h16.6v1.2h-1.6
	c-0.2,0-0.3,0.1-0.3,0.3c0,0.2,0.1,0.3,0.3,0.3h1.6v1.2H205.2z M221.8,426.3h-16.6v-1.2h16.6V426.3z M223.8,423.9
	c0,0.3-0.3,0.6-0.6,0.6h-19.6c-0.3,0-0.6-0.3-0.6-0.6v-1.3c0-0.3,0.3-0.6,0.6-0.6h19.6c0.3,0,0.6,0.3,0.6,0.6V423.9z"/>
<path fill="#888E98" d="M209.1,413.3c-0.3,0.2-0.6,0.5-0.6,1.1c0,0.2,0.1,0.3,0.3,0.3s0.3-0.1,0.3-0.3c0-0.3,0.1-0.4,0.4-0.6
	c0.3-0.2,0.6-0.5,0.6-1.1c0-0.6-0.3-0.9-0.6-1.1c-0.2-0.2-0.4-0.3-0.4-0.6c0-0.3,0.1-0.4,0.4-0.6c0.3-0.2,0.6-0.5,0.6-1.1
	c0-0.2-0.1-0.3-0.3-0.3c-0.2,0-0.3,0.1-0.3,0.3c0,0.3-0.1,0.4-0.4,0.6c-0.3,0.2-0.6,0.5-0.6,1.1s0.3,0.9,0.6,1.1
	c0.2,0.2,0.4,0.3,0.4,0.6C209.5,413,209.4,413.1,209.1,413.3z"/>
<path fill="#888E98" d="M213.3,413.3c-0.3,0.2-0.6,0.5-0.6,1.1c0,0.2,0.1,0.3,0.3,0.3s0.3-0.1,0.3-0.3c0-0.3,0.1-0.4,0.4-0.6
	c0.3-0.2,0.6-0.5,0.6-1.1c0-0.6-0.3-0.9-0.6-1.1c-0.2-0.2-0.4-0.3-0.4-0.6c0-0.3,0.1-0.4,0.4-0.6c0.3-0.2,0.6-0.5,0.6-1.1
	c0-0.2-0.1-0.3-0.3-0.3s-0.3,0.1-0.3,0.3c0,0.3-0.1,0.4-0.4,0.6c-0.3,0.2-0.6,0.5-0.6,1.1s0.3,0.9,0.6,1.1c0.2,0.2,0.4,0.3,0.4,0.6
	C213.7,413,213.5,413.1,213.3,413.3z"/>
<path fill="#888E98" d="M217.5,413.3c-0.3,0.2-0.6,0.5-0.6,1.1c0,0.2,0.1,0.3,0.3,0.3s0.3-0.1,0.3-0.3c0-0.3,0.1-0.4,0.4-0.6
	c0.3-0.2,0.6-0.5,0.6-1.1c0-0.6-0.3-0.9-0.6-1.1c-0.2-0.2-0.4-0.3-0.4-0.6c0-0.3,0.1-0.4,0.4-0.6c0.3-0.2,0.6-0.5,0.6-1.1
	c0-0.2-0.1-0.3-0.3-0.3s-0.3,0.1-0.3,0.3c0,0.3-0.1,0.4-0.4,0.6c-0.3,0.2-0.6,0.5-0.6,1.1s0.3,0.9,0.6,1.1c0.2,0.2,0.4,0.3,0.4,0.6
	C217.8,413,217.7,413.1,217.5,413.3z"/>
</svg>
