<?xml version="1.0" encoding="utf-8"?>
<!-- Generator: Adobe Illustrator 22.0.1, SVG Export Plug-In . SVG Version: 6.00 Build 0)  -->
<svg version="1.1" id="Capa_1" xmlns="http://www.w3.org/2000/svg" xmlns:xlink="http://www.w3.org/1999/xlink" x="0px" y="0px"
	 viewBox="162 409.9 22 22" enable-background="new 162 409.9 22 22" xml:space="preserve">
<g>
	<path fill="#888E98" d="M183.6,409.9h-21.3c-0.2,0-0.4,0.2-0.4,0.4v1.8c0,0.2,0.2,0.4,0.4,0.4h0.6v19.1c0,0.2,0.2,0.4,0.4,0.4h19.4
		c0.2,0,0.4-0.2,0.4-0.4v-19.1h0.6c0.2,0,0.4-0.2,0.4-0.4v-1.8C184,410,183.8,409.9,183.6,409.9z M183.3,411.7h-17.2
		c-0.2,0-0.4,0.2-0.4,0.4c0,0.2,0.2,0.4,0.4,0.4h16.3v3.5h-18.7v-3.5h1.1c0.2,0,0.4-0.2,0.4-0.4c0-0.2-0.2-0.4-0.4-0.4h-2v-1.1h20.6
		V411.7z M180.1,429h-2c0.1-0.2,0.2-0.5,0.2-0.7c0-0.8-0.6-1.4-1.4-1.4h-1.6c0.1-0.1,0.2-0.2,0.4-0.3c0.6-0.6,1.1-1.4,1.2-2.3
		c0-0.2-0.1-0.4-0.3-0.4c0,0,0,0,0,0c-0.2,0-0.4,0.1-0.4,0.3c-0.2,1.2-1.2,2.7-3.2,2.7c-0.9,0-1.7-0.3-2.3-0.9c-0.6-0.6-1-1.5-1-2.4
		c0-1.3,0.7-2.6,1.1-3.2l0.4,0.5c0.2,0.2,0.3,0.2,0.4,0.2c0.1,0,0.2-0.1,0.2-0.2c0,0,0,0,0,0c0.1-0.3,0.5-1.3,1.1-2.1
		c0.6,0.8,1,1.8,1.1,2.1c0,0,0,0,0,0c0,0.1,0.1,0.2,0.2,0.2c0.1,0,0.3,0,0.4-0.2l0.4-0.5c0.3,0.5,0.9,1.5,1.1,2.6
		c0,0.2,0.2,0.3,0.4,0.3c0,0,0,0,0,0c0.2,0,0.3-0.2,0.3-0.4c-0.3-1.8-1.5-3.2-1.5-3.3c-0.1-0.1-0.2-0.1-0.3-0.1
		c-0.1,0-0.2,0.1-0.3,0.1c-0.1,0.1-0.2,0.3-0.3,0.4c-0.2-0.6-0.7-1.4-1.3-2c-0.1-0.1-0.2-0.1-0.3-0.1s-0.2,0-0.3,0.1
		c-0.6,0.6-1,1.4-1.3,2c-0.1-0.1-0.2-0.3-0.3-0.4c-0.1-0.1-0.2-0.1-0.3-0.1c-0.1,0-0.2,0-0.3,0.1c-0.1,0.1-1.6,2-1.6,4
		c0,1.1,0.4,2.2,1.2,2.9c0.1,0.1,0.3,0.3,0.5,0.4h-1.6c-0.8,0-1.4,0.6-1.4,1.4c0,0.3,0.1,0.5,0.2,0.7h-2v-12.4h14.3V429z M170.4,429
		c0.1-0.2,0.2-0.5,0.2-0.7c0-0.3-0.1-0.5-0.2-0.7h6.5c0.4,0,0.7,0.3,0.7,0.7c0,0.4-0.3,0.7-0.7,0.7H170.4z M168.4,428.2
		c0-0.4,0.3-0.7,0.7-0.7c0.4,0,0.7,0.3,0.7,0.7c0,0.4-0.3,0.7-0.7,0.7C168.7,429,168.4,428.6,168.4,428.2z M163.6,416.6h1.5v14.6
		h-1.5V416.6z M165.9,429.7h14.3v1.5h-14.3V429.7z M180.8,416.6h1.5v14.6h-1.5V416.6z"/>
	<path fill="#888E98" d="M166.1,414.4c0.2,0,0.4-0.2,0.4-0.4s-0.2-0.4-0.4-0.4c-0.2,0-0.4,0.2-0.4,0.4S165.9,414.4,166.1,414.4z"/>
	<path fill="#888E98" d="M177.9,415.1c0.2,0,0.4-0.2,0.4-0.4s-0.2-0.4-0.4-0.4c-0.2,0-0.4,0.2-0.4,0.4S177.7,415.1,177.9,415.1z"/>
	<path fill="#888E98" d="M180,414.4c0.2,0,0.4-0.2,0.4-0.4s-0.2-0.4-0.4-0.4c-0.2,0-0.4,0.2-0.4,0.4S179.8,414.4,180,414.4z"/>
</g>
</svg>
