<?xml version="1.0" encoding="utf-8"?>
<!-- Generator: Adobe Illustrator 22.0.1, SVG Export Plug-In . SVG Version: 6.00 Build 0)  -->
<svg version="1.1" id="Слой_1" xmlns="http://www.w3.org/2000/svg" xmlns:xlink="http://www.w3.org/1999/xlink" x="0px" y="0px"
	 viewBox="204 409.9 22 22" enable-background="new 204 409.9 22 22" xml:space="preserve">
<path fill="#888E98" d="M210.1,414.7c0.7,0,1.3-0.6,1.3-1.3v-2.1c0-0.7-0.6-1.3-1.3-1.3c-0.7,0-1.3,0.6-1.3,1.3v2.1
	C208.8,414.1,209.4,414.7,210.1,414.7z M209.5,411.3c0-0.4,0.3-0.6,0.6-0.6c0.4,0,0.6,0.3,0.6,0.6v2.1c0,0.4-0.3,0.6-0.6,0.6
	c-0.4,0-0.6-0.3-0.6-0.6V411.3z"/>
<path fill="#888E98" d="M214,413.6c0.2,0,0.3-0.1,0.3-0.3v-2c0-0.4,0.3-0.6,0.6-0.6c0.4,0,0.6,0.3,0.6,0.6v2.1
	c0,0.4-0.3,0.6-0.6,0.6c-0.2,0-0.3,0.1-0.3,0.3c0,0.2,0.1,0.3,0.3,0.3c0.7,0,1.3-0.6,1.3-1.3v-2.1c0-0.7-0.6-1.3-1.3-1.3
	c-0.7,0-1.3,0.6-1.3,1.3v2C213.7,413.5,213.8,413.6,214,413.6z"/>
<path fill="#888E98" d="M219.9,414.7c0.7,0,1.3-0.6,1.3-1.3v-2.1c0-0.7-0.6-1.3-1.3-1.3s-1.3,0.6-1.3,1.3v2.1
	C218.6,414.1,219.1,414.7,219.9,414.7z M219.2,411.3c0-0.4,0.3-0.6,0.6-0.6c0.4,0,0.6,0.3,0.6,0.6v2.1c0,0.4-0.3,0.6-0.6,0.6
	c-0.4,0-0.6-0.3-0.6-0.6V411.3z"/>
<path fill="#888E98" d="M225.2,418.5h-1.3c0.1-0.2,0.1-0.5,0.1-0.7c0-1.2-1.2-2.3-2.7-2.3c-0.9,0-1.6,0.3-2.1,0.9
	c-0.5-0.5-1.3-0.9-2.1-0.9c-0.9,0-1.6,0.3-2.1,0.9c-0.5-0.5-1.3-0.9-2.1-0.9c-0.9,0-1.6,0.3-2.1,0.9c-0.5-0.5-1.3-0.9-2.1-0.9
	c-1.5,0-2.7,1-2.7,2.3c0,0.2,0,0.5,0.1,0.7h-1.2c-0.5,0-0.8,0.4-0.8,0.8v1.6c0,0.5,0.4,0.8,0.8,0.8h0.2v9.6c0,0.2,0.1,0.3,0.3,0.3
	h19.2c0.2,0,0.3-0.1,0.3-0.3v-9.6h0.3c0.5,0,0.8-0.4,0.8-0.8v-1.6C226,418.9,225.6,418.5,225.2,418.5z M221.3,416.2
	c1.1,0,2.1,0.7,2.1,1.6c0,0.3-0.1,0.5-0.2,0.7h-3.5c0.1-0.2,0.1-0.5,0.1-0.7c0-0.3-0.1-0.6-0.2-0.9
	C220,416.5,220.6,416.2,221.3,416.2z M217.1,416.2c1.1,0,2.1,0.7,2.1,1.6c0,0.3-0.1,0.5-0.2,0.7h-3.5c0.1-0.2,0.1-0.5,0.1-0.7
	c0-0.3-0.1-0.6-0.2-0.9C215.7,416.5,216.4,416.2,217.1,416.2z M212.9,416.2c1.1,0,2.1,0.7,2.1,1.6c0,0.3-0.1,0.5-0.2,0.7h-3.5
	c0.1-0.2,0.1-0.5,0.1-0.7c0-0.3-0.1-0.6-0.2-0.9C211.5,416.5,212.1,416.2,212.9,416.2z M208.6,416.2c1.1,0,2.1,0.7,2.1,1.6
	c0,0.3-0.1,0.5-0.2,0.7h-3.7c-0.1-0.2-0.2-0.5-0.2-0.7C206.5,416.9,207.5,416.2,208.6,416.2z M207.6,431h-1.9v-2.6h1.9V431z
	 M207.6,427.7h-1.9V425h1.9V427.7z M207.6,424.4h-1.9v-2.6h1.9V424.4z M210.4,431h-2.2v-9.2h2.2V431z M218.9,431h-7.8v-2.6h7.8V431z
	 M221.7,431h-2.2v-3.6c0-0.2-0.1-0.3-0.3-0.3s-0.3,0.1-0.3,0.3v0.3h-7.8V425h7.8v0.9c0,0.2,0.1,0.3,0.3,0.3s0.3-0.1,0.3-0.3v-4.2
	h2.2V431z M211.1,424.4v-2.6h7.8v2.6H211.1z M224.3,431h-1.9v-2.6h1.9V431z M224.3,427.7h-1.9V425h1.9V427.7z M224.3,424.4h-1.9
	v-2.6h1.9V424.4z M225.4,420.9c0,0.1-0.1,0.2-0.2,0.2h-20.4c-0.1,0-0.2-0.1-0.2-0.2v-1.6c0-0.1,0.1-0.2,0.2-0.2h20.4
	c0.1,0,0.2,0.1,0.2,0.2V420.9z"/>
<path fill="#888E98" d="M209.8,423.1c0,0.3-0.2,0.5-0.5,0.5c-0.3,0-0.5-0.2-0.5-0.5c0-0.3,0.2-0.5,0.5-0.5
	C209.6,422.6,209.8,422.8,209.8,423.1z"/>
<path fill="#888E98" d="M209.8,429.6c0,0.3-0.2,0.5-0.5,0.5c-0.3,0-0.5-0.2-0.5-0.5c0-0.3,0.2-0.5,0.5-0.5
	C209.6,429.1,209.8,429.3,209.8,429.6z"/>
<path fill="#888E98" d="M221.1,423.1c0,0.3-0.2,0.5-0.5,0.5c-0.3,0-0.5-0.2-0.5-0.5c0-0.3,0.2-0.5,0.5-0.5
	C220.9,422.6,221.1,422.8,221.1,423.1z"/>
<path fill="#888E98" d="M221.1,429.6c0,0.3-0.2,0.5-0.5,0.5c-0.3,0-0.5-0.2-0.5-0.5c0-0.3,0.2-0.5,0.5-0.5
	C220.9,429.1,221.1,429.3,221.1,429.6z"/>
</svg>
